<?xml version="1.0" standalone="no"?>
<!DOCTYPE svg PUBLIC "-//W3C//DTD SVG 1.1//EN" "http://www.w3.org/Graphics/SVG/1.1/DTD/svg11.dtd">
<svg xmlns="http://www.w3.org/2000/svg">
<metadata>Copyright (C) 2019 by original authors @ fontello.com</metadata>
<defs>
<font id="lordcros" horiz-adv-x="1000" >
<font-face font-family="lordcros" font-weight="400" font-stretch="normal" units-per-em="1000" ascent="850" descent="-150" />
<missing-glyph horiz-adv-x="1000" />
<glyph glyph-name="cancel" unicode="&#xe800;" d="M452 194q18-18 18-43t-18-43q-18-16-43-16t-43 16l-132 152-132-152q-18-16-43-16t-43 16q-16 18-16 43t16 43l138 156-138 158q-16 18-16 43t16 43q18 16 43 16t43-16l132-152 132 152q18 16 43 16t43-16q18-18 18-43t-18-43l-138-158z" horiz-adv-x="470" />

<glyph glyph-name="sun" unicode="&#xe801;" d="M932 599c-5 9-16 12-25 7l-89-51c-8-5-11-16-6-25 5-9 16-12 25-7l88 52c9 5 12 16 7 24z m-7-474l-88 52c-9 5-20 2-25-7-5-9-2-20 6-25l89-51c9-5 20-2 25 7 5 8 2 19-7 24z m-424-134c-10 1-18-6-19-16 0-1 0-2 0-3v-102c-1-11 7-19 17-20s19 7 19 17c0 1 0 2 0 3v102c1 10-7 19-17 19z m-319 564l-89 51c-9 5-20 2-25-7-5-8-2-19 7-24l88-52c9-5 20-2 25 7 5 9 2 20-6 25z m319 295c-10 1-18-7-19-17 0-1 0-2 0-3v-102c0-10 8-18 18-18 10 0 18 8 18 18v102c1 11-7 19-17 20z m-174-163l-51 88c-6 9-17 12-25 7-9-5-12-16-7-25l51-89c5-8 16-11 25-6 9 5 12 16 7 25z m176-175c-1 0-2 0-3 0-89 0-162-73-162-162 0-10 8-18 18-18 10 0 19 8 19 18 0 69 56 125 125 126 0 0 0 0 0 0 10-1 19 6 20 16s-7 19-17 20z m494-161c0 9-8 17-17 17h-102c-10 1-19-6-19-17s6-18 16-19c1 0 2 0 3 0h102c11 1 18 9 17 19z m-872 17c-1 0-2 0-3 0h-102c-10-1-18-9-17-19 0-9 8-17 17-17h102c10-1 19 7 20 17 0 10-7 18-17 19z m375 250c-148 0-268-120-268-268 0-71 29-139 79-189 50-51 118-79 189-79 148 0 268 120 268 268s-120 268-268 268z m164-432c-91-90-237-90-328 0-43 44-67 103-67 164 0 61 24 120 67 164v-1c91 91 237 91 328 0 90-90 90-236 0-327z m92-243c0 0 0 0 0 0l-51 89c-5 8-16 11-25 6-9-5-12-16-7-25l52-88c5-9 16-12 24-7 9 5 12 16 7 25z m-6 839c-9 5-20 2-25-7l-51-88c-5-9-2-20 6-25 0 0 0 0 0 0h0c9-5 20-2 25 6 0 0 0 0 0 0l52 89c5 9 2 20-7 25z m-430-744c-8 5-20 2-25-6l-51-89c-5-9-2-20 7-25s19-2 25 7l51 88c5 9 2 20-7 25z m-132 132c-5 9-16 12-25 7l-88-51c-9-6-12-17-7-25 5-9 16-12 25-7l89 51c8 5 11 17 6 25z" horiz-adv-x="1000" />

<glyph glyph-name="arrow-right" unicode="&#xe802;" d="M918 835c-17 19-47 20-66 3-1-1-1-2-2-3-19-20-19-51 0-71l348-364h-1150c-27 0-48-22-48-49 0 0 0-1 0-1-1-27 21-50 48-51h1150l-348-362c-19-21-19-52 0-72 17-19 47-20 66-3 0 1 1 2 2 3l431 449c19 20 19 52 0 71l-431 450z" horiz-adv-x="1364" />

<glyph glyph-name="search" unicode="&#xe803;" d="M603 850c-224-3-402-187-399-411 2-93 36-184 96-255l-294-298c-8-7-8-20-1-29 1 0 1 0 1-1 4-4 9-6 15-6 5 0 11 2 15 6l292 297c74-71 172-111 275-111 223 2 402 186 399 409-3 219-180 396-399 399z m0-766c-200-3-364 157-367 356-3 200 156 364 356 368 200 3 364-157 367-357 0-2 0-3 0-5 1-198-158-360-356-362z m-236 502c3-3 8-4 13-4 6 0 12 3 16 9l10 12c7 10 5 23-4 30 0 0 0 0 0 0-9 7-22 6-29-3 0 0 0-1-1-1l-9-13c-7-9-6-23 4-30 0 0 0 0 0 0z m66-326c-52 47-82 115-82 186 0 22 3 43 8 65 4 11-3 23-14 26 0 0 0 0 0 0-11 4-23-3-26-13 0-1 0-1 0-2-7-24-11-50-11-75 0-84 35-163 97-219 3-3 8-5 13-6 6 0 12 3 16 8 7 9 7 21-1 30z" horiz-adv-x="1002" />

<glyph glyph-name="bell" unicode="&#xe804;" d="M503 445c0-11-8-20-19-20-135 0-244-111-244-248 0-11-9-20-20-20-11 0-19 9-19 20 0 159 127 288 283 288 11 0 19-9 19-20z m527 27c-58 118-156 210-277 259-10 4-22-1-26-11-4-10 1-22 11-26 112-45 203-131 257-240 3-7 10-11 18-11 3 0 6 0 8 2 10 5 14 17 9 27z m-143-21c3-6 10-9 16-9 4 0 8 1 11 3 9 6 12 19 6 28-42 64-99 116-166 151-9 5-21 1-26-9-5-10-1-22 8-27 61-31 113-79 151-137z m114-529c0-40-32-72-71-72h-859c-39 0-71 32-71 72 0 40 32 72 71 72h217v43h-196c-11 0-20 9-20 20v104c0 116 45 225 126 308 76 77 176 122 282 127v110h-5c-39 0-71 32-71 72s32 72 71 72h51c39 0 71-32 71-72 0-40-32-72-71-72h-6v-110c107-5 206-50 283-127 81-83 126-192 126-308v-104c0-11-9-20-20-20h-197v-43h218c39 0 71-32 71-72z m-501 824h26c17 0 31 14 31 32 0 18-14 32-31 32h-51c-17 0-31-14-31-32 0-17 14-32 31-32h25z m192-669h197v84c0 218-174 395-389 395-214 0-389-177-389-395v-84h581z m-364-40v-43h345v43h-345z m633-115c0 18-14 32-31 32h-859c-17 0-31-14-31-32 0-18 14-32 31-32h859c17 0 31 14 31 32z" horiz-adv-x="1032" />

<glyph glyph-name="arrow-left" unicode="&#xe805;" d="M445-135c18-19 48-20 66-3 1 1 2 2 3 3 19 20 19 51 0 71l-348 364h1149c27 0 49 22 49 49 0 0 0 1 0 1 0 27-21 50-49 51h-1149l348 362c19 21 19 52 0 72-17 19-47 20-66 3-1-1-2-2-3-3l-431-449c-19-20-19-52 0-71l431-450z" horiz-adv-x="1364" />

<glyph glyph-name="play" unicode="&#xe806;" d="M945 579c-35 68-86 128-148 173-9 7-22 5-28-4-7-9-5-22 4-28 56-42 103-97 135-160 34-65 51-136 51-210 0-253-206-459-459-459s-459 206-459 459c0 253 206 459 459 459 11 0 20 9 20 21 0 11-9 20-20 20-276 0-500-224-500-500 0-276 224-500 500-500s500 224 500 500c0 80-19 159-55 229z m-573 3c-6-4-10-10-10-18v-446c0-11 9-20 20-20s20 9 20 20v411l302-180-222-142c-9-7-12-19-6-29 6-9 19-12 28-6l249 161c6 4 10 10 10 17 0 7-4 14-10 17l-360 215c-7 4-15 4-21 0z" horiz-adv-x="1000" />

<glyph glyph-name="arrow-top" unicode="&#xe807;" d="M11 524c-14-13-15-35-2-49 1-1 1-1 2-2 15-13 38-13 52 0l267 256v-844c0-19 16-35 36-35 0 0 1 0 1 0 20 0 36 15 37 35v844l266-256c15-13 38-13 53 0 14 13 14 35 1 49 0 0-1 1-1 1l-330 317c-15 14-38 14-52 0l-330-316z" horiz-adv-x="734" />

<glyph glyph-name="arrow-down" unicode="&#xe808;" d="M723 177c14 12 14 34 1 48 0 1-1 1-1 2-15 13-38 13-52 0l-267-256v844c-1 19-17 35-36 35-1 0-1 0-1 0-20 0-37-15-38-35v-844l-265 256c-15 14-38 14-53 0-14-13-15-35-2-48 1-1 1-2 2-2l330-317c14-14 37-14 52 0l330 317z" horiz-adv-x="734" />

<glyph glyph-name="coffee-cup" unicode="&#xe809;" d="M841 39l9 2c13 2 310 60 310 214 0 48-16 82-47 102-45 28-108 16-146 4v37c0 39-33 71-73 71h-676c-40 0-73-32-73-71v-48c0-142 66-272 177-357h-298c-10 0-18-6-22-15-4-9-2-19 5-26l54-53c32-32 75-49 120-49h750c45 0 87 17 120 49l54 53c7 7 9 17 5 26-4 9-13 15-22 15h-298c18 14 35 30 51 46z m124 270c31 12 91 28 122 7 17-10 25-30 25-61 0-79-133-132-222-156 42 62 68 134 75 210z m64-364l-13-13c-23-22-53-34-85-34h-750c-32 0-63 12-85 34l-13 13h322c0 0 0 0 0 0h624z m-219 130c-31-32-68-60-109-82h-290c-135 71-218 207-218 357v48c0 13 11 23 25 23h676c14 0 24-10 24-23v-48c0-102-38-198-105-271-1-1-3-3-3-4z m-104 451c5-6 12-9 19-9 5 0 11 1 15 5 11 8 12 23 4 34-25 30-25 82 0 113 39 48 39 124 0 172-8 11-23 12-34 4-10-8-12-23-4-33 25-31 25-83 0-114-39-48-39-124 0-172z m-145 0c5-6 12-9 19-9 5 0 11 1 15 5 10 8 12 23 4 34-25 30-25 82 0 113 39 48 39 124 0 172-9 11-24 12-34 4-11-8-12-23-4-33 25-31 25-83 0-114-39-48-39-124 0-172z m-145 0c5-6 12-9 19-9 6 0 11 1 15 5 11 8 12 23 4 33-25 31-25 83 0 114 39 48 39 124 0 172-8 10-23 12-34 4-10-8-12-23-4-33 25-31 25-83 0-114-39-48-39-124 0-172z" horiz-adv-x="1160" />

<glyph glyph-name="leaf" unicode="&#xe80a;" d="M1176 268c0 1 0 1-1 2l-59 407c-1 7-5 13-11 17-6 4-14 4-20 1l-272-108c-12-5-18-18-13-30 4-11 18-17 30-12l245 97 54-376c0-1 1-2 1-3 12-69-2-141-37-202-41-71-108-121-187-142-80-21-163-10-234 31-1 0-1 0-2 0 16 12 30 24 44 38l269 71c13 4 20 16 17 28-3 12-16 20-29 16l-207-55c23 34 41 71 53 110l185 50c12 3 20 15 16 27-3 13-15 20-28 17l-136-37 51 88 108 29c13 3 20 16 17 28-3 12-16 19-29 16l-63-17 49 84c6 11 2 25-9 31-11 7-25 3-31-8l-49-84-17 63c-4 12-16 20-29 16-12-3-19-16-16-28l29-107-30-51c1 73-18 145-56 210-47 82-122 145-211 179-1 0-1 0-1 0l-104 42c-12 4-25-1-30-13-5-12 1-25 13-30l103-41c0 0 1-1 1-1 80-30 147-86 190-159 49-85 62-184 36-278-23-88-78-162-153-212l-39 67 84 310c3 12-4 24-17 28-12 3-24-4-28-17l-72-265-85 146 58 215c3 12-4 24-16 28-13 3-25-4-29-16l-46-171-67 115 35 130c3 12-4 24-16 27-13 4-25-3-29-16l-23-85-63 109c-7 11-21 15-32 9-11-7-15-21-8-32l63-109-86 23c-12 3-25-4-28-16-3-12 4-25 16-28l131-35 67-115-172 46c-13 3-25-4-29-16-3-13 4-25 17-28l217-58 85-146-268 71c-13 3-25-4-29-16-3-12 4-25 17-28l313-83 38-67c-174-86-388-24-486 145-43 74-59 160-45 244 1 1 1 2 1 3l66 454 152-61c12-5 25 1 30 12 5 12-1 25-12 30l-181 72c-6 3-13 2-20-1-6-3-10-10-11-17l-70-485c0 0 0-1-1-2-15-93 3-190 51-272 77-132 217-206 361-206 64 0 128 15 189 45l28-49c4-7 12-11 20-11 4 0 8 1 11 3 11 6 15 20 9 31l-11 18c51-26 107-40 163-40 31 0 61 4 92 12 91 25 167 82 215 164 40 69 56 151 43 230z m-811 430c6 0 12 2 16 6 4 5 7 10 7 16 0 6-3 12-7 17-4 4-10 6-16 6-6 0-12-2-17-6-4-5-6-11-6-17 0-6 2-11 6-16 5-4 11-6 17-6z m621-188c4-7 11-10 18-10 5 0 10 2 14 4 10 8 13 22 5 32l0 0c-7 11-22 13-32 5-11-7-13-21-5-31l0 0z" horiz-adv-x="1180" />

<glyph glyph-name="send" unicode="&#xe80b;" d="M984 834c0 0 0 0 0 0 0 0 0 0 0 0-16 15-38 20-58 12l-891-348c-24-9-38-32-35-57 3-25 22-45 47-48l436-59c1 0 1-1 1-1l59-436c3-25 23-44 48-47 2 0 4 0 6 0 23 0 43 13 51 35l348 890c8 21 4 43-12 59z m-930-389c-1 0-1 0-1 2 0 1 0 1 1 2l833 326-389-390c-3 1-444 60-444 60z m545-541c-1-1-1-1-2-1-2 0-2 0-2 1 0 0-59 441-60 444l390 389-326-833z" horiz-adv-x="1000" />

<glyph glyph-name="angle-down" unicode="&#xe80c;" d="M1038-135l941 893c22 22 22 55 0 76-22 21-58 21-80 0l-901-855-901 855c-22 21-58 21-80 0-11-10-17-24-17-37 0-14 6-28 17-38l941-893c22-21 58-21 80-1z" horiz-adv-x="1996" />

<glyph glyph-name="angle-up" unicode="&#xe80d;" d="M958 835l-941-893c-23-22-23-55 0-76 22-21 57-21 79 0l902 855 901-855c22-21 58-21 80 0 11 10 17 24 17 37 0 14-6 28-17 38l-941 893c-22 21-58 21-80 1z" horiz-adv-x="1996" />

<glyph glyph-name="angle-left" unicode="&#xe80e;" d="M8 330l447-472c11-11 28-11 38 0 11 12 11 29 0 40l-428 452 428 452c11 11 11 28 0 40-5 5-12 8-19 8-6 0-13-3-18-8l-448-472c-11-11-11-29 0-40z" horiz-adv-x="501" />

<glyph glyph-name="angle-right" unicode="&#xe80f;" d="M493 370l-447 472c-11 11-28 11-38 0-11-11-11-29 0-40l428-452-428-452c-11-11-11-28 0-40 5-5 12-8 19-8 7 0 14 3 19 8l447 472c11 11 11 29 0 40z" horiz-adv-x="501" />

<glyph glyph-name="swim" unicode="&#xe810;" d="M668 369c11 0 20 9 20 20v0c0 11-9 19-20 19-11 0-20-8-20-19 0-11 9-20 20-20z m0 0m-8-264c47-36 113-36 160 0 24-18 52-27 80-27 34 0 68 13 94 39 8 7 8 20 0 27-7 8-20 8-27 0-18-17-42-27-67-27s-48 10-66 27c-7 8-20 8-27 0-18-17-42-27-67-27s-48 10-66 27c-8 8-20 8-28 0-16-16-36-25-57-27 42 16 72 56 72 104 0 27-9 51-25 70l251 0c11 0 19 9 19 20 0 26-10 51-28 69-19 18-43 29-69 29 0 0 0 0 0 0l-65 0c-11 0-19-9-19-20 0-11 8-20 19-20h0l65 0h0c15 0 30-6 41-17 6-6 11-13 14-22l-317 0c-1 0-2 0-3 0-57-4-102-52-102-109 0-33 15-62 38-83-37-30-92-28-126 6-8 8-20 8-28 0-18-17-41-27-66-27-19 0-37 6-53 16l27 31c68 78 148 142 239 191 18 9 39 14 59 14l56 0c11 0 19 9 19 20 0 11-8 19-19 19 0 0 0 0 0 0l-56 0c-27 0-54-6-77-19-96-50-180-117-250-199l-40-46c-17-17-41-27-65-27-25 0-49 10-67 27-7 8-20 8-27 0-8-7-8-20 0-27 47-48 122-52 174-12 47-36 113-36 160 0 47-36 113-36 160 0 47-36 113-36 160 0z m-108 186c39 0 70-31 70-70 0-39-31-71-70-71-39 0-71 32-71 71 0 39 32 70 71 70z m0 0m415-269c-37-37-96-37-133 0-7 8-20 8-27 0-37-37-96-37-133 0-8 8-20 8-28 0-36-37-96-37-132 0-8 8-20 8-28 0-7-8-7-20 0-28 48-47 122-51 174-12 23-17 51-27 80-27s57 10 80 27c52-39 127-35 174 12 8 8 8 20 0 28-7 8-20 8-27 0z m0 0m-641-106c-36-36-96-36-132 0-8 8-20 8-28 0-37-36-96-36-133 0-7 8-20 8-27 0-8-7-8-20 0-27 47-48 122-52 174-12 23-18 52-27 80-27 34 0 68 13 94 39 7 7 7 20 0 27-8 8-20 8-28 0z m0 0m-139 658c49 0 89 40 89 90 0 49-40 89-89 89s-90-40-90-89c0-50 40-90 90-90z m0 140c28 0 50-22 50-50s-22-51-50-51-51 23-51 51 23 50 51 50z m0 0m0 85c10 0 19 9 19 20v12c0 10-9 19-19 19-11 0-20-9-20-19v-12c0-11 9-20 20-20z m0 0m-20-290v-12c0-11 9-20 20-20 10 0 19 9 19 20v12c0 10-9 19-19 19-11 0-20-9-20-19z m0 0m175 135h12c10 0 19 9 19 20s-9 19-19 19h-12c-11 0-20-9-20-19s9-20 20-20z m0 0m-322 0h12c10 0 19 9 19 20s-9 19-19 19h-12c-11 0-20-9-20-19s9-20 20-20z m0 0m43-76l-8-9c-8-7-8-20 0-27 3-4 8-6 13-6 5 0 10 2 14 6l9 8c7 8 7 20 0 28-8 7-20 7-28 0z m0 0m233 186c5 0 10 2 14 5l8 9c8 7 8 20 0 27-7 8-20 8-27 0l-9-8c-7-8-7-20 0-28 4-3 9-5 14-5z m0 0m-233 5c4-3 9-5 14-5s10 2 14 5c7 8 7 20 0 28l-9 8c-7 8-20 8-27 0-8-7-8-20 0-27z m0 0m228-227c4-4 9-6 14-6 5 0 10 2 13 6 8 7 8 20 0 27l-8 9c-8 7-20 7-28 0-7-8-7-20 0-28z m0 0" horiz-adv-x="1000" />

<glyph glyph-name="placeholder" unicode="&#xe811;" d="M343 850c-189 0-343-158-343-351 0-66 18-130 51-185l272-450c6-9 15-14 25-14h0c10 0 19 5 24 14l266 454c31 55 48 117 48 180 0 194-154 352-343 352z m245-502l-241-413-247 409c-28 47-43 100-43 154 0 162 128 294 286 294s286-132 286-294c0-52-14-104-41-150z m-245 326c-95 0-171-79-171-176 0-96 75-175 171-175 97 0 171 80 171 175 0 97-77 176-171 176z m0-293c-63 0-115 53-115 118 0 64 52 117 115 117 63 0 114-53 114-117 0-64-50-118-114-118z" horiz-adv-x="686" />

<glyph glyph-name="call" unicode="&#xe812;" d="M974 79l-203 135c-25 17-60 11-79-13l-59-76c-7-10-21-13-32-7l-11 6c-38 21-84 46-177 139-93 93-118 140-139 177l-6 11c-6 11-3 25 7 32l76 59c24 19 29 54 13 79l-135 203c-18 26-53 34-80 18l-84-51c-27-16-46-41-55-71-30-111-7-303 275-585 225-225 392-285 507-285 26 0 52 3 78 10 30 9 55 28 71 55l51 84c16 27 8 62-18 80z m-11-63l-51-84c-11-20-29-34-51-40-102-28-281-4-552 267-271 271-295 450-267 552 7 22 21 40 40 51l84 51c12 7 27 4 35-8l73-110 62-92c7-11 5-26-6-34l-76-59c-23-18-29-50-15-75l6-11c21-39 48-88 144-184s146-124 185-145l11-6c25-14 57-8 74 15l59 76c9 11 24 13 35 6l202-135c11-8 15-23 8-35z m-396 667c156 0 283-127 283-283 0-9 7-17 17-17 9 0 16 8 16 17 0 175-142 316-316 317-10 0-17-8-17-17s7-17 17-17z m0-100c101 0 183-82 183-183 0-9 7-17 17-17 9 0 16 8 16 17 0 120-97 217-216 217-10 0-17-8-17-17 0-9 7-17 17-17z m0-100c46 0 83-37 83-83 0-9 7-17 17-17 9 0 16 8 16 17 0 64-52 117-116 117-9 0-17-8-17-17 0-9 7-17 17-17z" horiz-adv-x="1000" />

<glyph glyph-name="clock" unicode="&#xe813;" d="M500 850c138 0 263-56 354-146 90-91 146-216 146-354 0-138-56-263-146-354-91-90-216-146-354-146-138 0-263 56-353 146-91 91-147 216-147 354 0 138 56 263 147 354 90 90 215 146 353 146l0 0z m255-473c15 0 27-12 27-27 0-15-12-27-27-27h-254-1c-10 0-19 6-24 14l0 0 0 0 0 1 0 0v0l0 0-1 1 0 0 0 1 0 0v0l0 0 0 1 0 0-1 0 0 0v1l0 0 0 1 0 0v0l0 0-1 1 0 0v1l0 0v0 0l0 1 0 0v1l0 0v0l0 0v1l0 0v0l0 0v1l0 0v1l0 0v326c0 15 12 26 27 26 15 0 27-11 27-26v-299h228z m60 288c-81 81-192 131-315 131-123 0-235-50-315-131-81-81-131-192-131-315 0-123 50-234 131-315 80-81 192-131 315-131 123 0 234 50 315 131 81 81 131 192 131 315 0 123-50 234-131 315l0 0z" horiz-adv-x="1000" />

<glyph glyph-name="user" unicode="&#xe814;" d="M854 204c-55 54-120 94-190 119 75 52 125 139 125 238 0 159-130 289-289 289s-289-130-289-289c0-99 50-186 125-238-70-25-135-65-190-119-94-95-146-220-146-354h78c0 233 190 422 422 422 233 0 422-189 422-422h78c0 134-52 259-146 354z m-354 146c-116 0-211 95-211 211s95 211 211 211 211-95 211-211-95-211-211-211z" horiz-adv-x="1000" />

<glyph glyph-name="plans" unicode="&#xe815;" d="M983 850h-771c-9 0-17-8-17-17v-771c0-9 8-17 17-17h771c9 0 17 8 17 17v661c0 9-8 17-17 17s-17-8-17-17v-292h-68c-9 0-17-8-17-17 0-10 8-17 17-17h68v-318h-487v83c0 9-7 17-17 17-9 0-17-8-17-17v-83h-216v737h216v-532c0-9 8-17 17-17 10 0 17 8 17 17v113h304c9 0 17 7 17 17 0 9-8 17-17 17h-304v385h487v-37c0-9 8-17 17-17 9 0 17 8 17 17v54c0 9-8 17-17 17z m-895-8c-3 5-9 8-15 8s-11-3-14-8l-56-90c-4-5-4-12-1-17 3-6 9-9 15-9h39v-72c0-9 8-17 17-17 10 0 17 8 17 17v72h40c6 0 11 3 14 9 3 5 3 12 0 17l-56 90z m-40-82l25 41 26-41h-51z m82-590h-40v439c0 9-7 17-17 17-9 0-17-8-17-17v-439h-39c-6 0-12-4-15-9-3-6-3-12 1-18l56-90c3-5 8-8 14-8s12 3 15 8l56 90c3 6 3 12 0 18-3 5-8 9-14 9z m-57-76l-25 41h51l-26-41z m919-156l-90 56c-6 3-12 3-18 0-5-3-8-8-8-15v-39h-556v39c0 7-4 12-9 15-6 3-12 3-18 0l-90-56c-5-3-8-9-8-15 0-6 3-11 8-14l90-56c3-2 6-3 9-3 3 0 6 1 9 2 5 3 9 9 9 15v39h556v-39c0-6 3-12 9-15 2-1 5-2 8-2 3 0 6 1 9 3l90 56c5 3 8 8 8 14 0 6-3 12-8 15z m-707-40l-41 25 41 26v-51z m625 0v51l41-26-41-25z" horiz-adv-x="1000" />

<glyph glyph-name="phone" unicode="&#xe816;" d="M999 27c-3 24-17 45-38 57l-246 142c-31 17-69 12-94-12l-48-49c-13-13-34-14-48-3-38 31-76 65-112 101-36 36-70 74-101 112-11 14-10 35 3 48l49 48c24 25 29 63 12 94l-142 246c-12 21-33 35-57 38-24 4-48-4-65-22l-73-73c-51-51-52-144-2-263 47-114 136-240 250-354 114-113 240-203 354-250 58-25 111-37 155-37 45 0 82 13 108 39l73 73c18 17 25 41 22 65z m-301 171l247-142c12-7 20-19 22-33 2-12-1-24-8-33l-328 187 13 14c15 14 37 17 54 7z m-525 619c14-2 26-10 33-22l142-247c10-17 7-39-7-54l-13-12-188 327c8 6 17 9 27 9 2 0 4 0 6-1z m708-905c-40-41-123-39-228 4-110 47-232 133-343 244-111 111-197 233-243 343-44 105-46 188-5 228l54 55 189-328-13-12c-25-25-27-64-5-91 32-39 66-78 103-115 37-37 76-71 115-103 27-22 66-20 91 5l11 12 329-188-55-54z" horiz-adv-x="1000" />

<glyph glyph-name="mouse" unicode="&#xe817;" d="M364 850h-68c-163 0-296-130-296-290v-420c0-160 133-290 296-290h68c163 0 296 130 296 290v420c0 160-133 290-296 290z m265-710c0-144-119-260-265-260h-68c-147 0-266 116-266 260v420c0 144 119 260 266 260h19v-147c-32-6-55-34-55-67v-112c0-32 23-60 55-67v-66h30v66c31 7 55 35 55 67v112c0 33-24 61-55 68v146h19c146 0 265-116 265-260v-420z m-299 505c22 0 40-17 40-39v-112c0-21-18-39-40-39s-40 18-40 39v112c0 22 18 39 40 39z m34-706v-30c130 0 235 104 235 231h-30c0-111-92-201-205-201z m-49 323h30v60h-30v-60z" horiz-adv-x="660" />

<glyph glyph-name="wifi" unicode="&#xe818;" d="M780 308c0 11-6 22-14 30-73 65-168 101-266 101-98 0-193-36-266-101-8-8-13-19-14-30 0-12 4-23 13-31l80-81c16-15 40-16 57-2 36 30 82 47 130 47 48 0 94-17 130-47 8-7 18-10 27-10 11 0 22 4 30 12l81 81c8 8 12 19 12 31z m-123-82l0 0c-43 37-99 57-157 57-58 0-113-20-157-57l-81 80c66 59 150 91 238 91s172-32 238-90l-81-81z m-94-124c-17 17-39 26-63 26s-46-9-63-26c-34-35-34-91 0-126 18-17 40-26 63-26s46 9 63 26c17 17 26 39 26 63 0 24-9 46-26 63z m-30-96c-18-18-48-18-66 0-18 18-18 48 0 66 9 9 21 14 33 14 13 0 24-5 33-14 0 0 0 0 0 0 9-9 14-20 14-33 0-12-5-24-14-33z m454 552c-273 256-701 256-974 0-8-8-13-19-13-31 0-11 4-22 12-30l81-80c16-16 41-17 58-1 95 88 219 136 349 136 130 0 254-48 349-136 8-8 18-12 29-12 10 0 21 4 30 13l80 80c8 8 12 19 12 30 0 12-5 23-13 31z m-109-111c-103 95-237 147-378 147-141 0-275-52-378-147l-80 80c257 241 659 241 916 0l0 0-80-80z" horiz-adv-x="1000" />

<glyph glyph-name="airplane" unicode="&#xe819;" d="M119 423c-8-4-12-14-8-23l39-84c2-5 6-8 10-9 2-1 4-1 6-1 2 0 5 0 7 1l298 139-27-282c-1-5 1-11 5-14 14-11 30-17 47-18 4 0 9 1 14 2 24 6 42 28 55 64l117 347 232 108c68 32 103 97 80 147-14 26-39 44-69 48-32 5-66-1-95-15l-268-125-287 112c-36 14-65 13-85-1-17-14-27-35-26-57 0-5 3-10 7-14l194-133-111-52-186 47c-8 2-16-1-19-8l-47-84c-2-4-3-9-1-14 2-5 6-9 10-10l138-57z m80 348c2 7 5 14 11 19 10 7 28 6 52-3l257-100-117-54z m-157-253l30 55 179-45c4-1 8-1 12 1l582 272c23 11 49 15 74 12 18-2 34-12 43-28 15-31-14-77-63-100l-201-95 12 37c3 9-2 19-11 22-10 3-20-2-23-11l-144-429c-8-24-19-39-31-42-7-1-15 0-21 4l35 368c0 9-7 18-16 19-10 1-18-6-19-16l-6-56-300-140-25 52 50 24c6 2 10 9 10 16 0 6-4 13-10 16z m0 0" horiz-adv-x="1000" />

<glyph glyph-name="parking" unicode="&#xe81a;" d="M836 691h-49c-7 0-12-5-12-10h0v-158c0-6 8-10 16-10 8 0 16 4 16 10v57h27c32 0 57 15 57 55v1c0 40-24 55-55 55z m23-59c0-19-9-28-25-28h-27v59h27c16 0 25-9 25-28v-3z m-287-3c-46 46-107 72-172 72-65 0-127-26-173-72-5-6-5-15 0-20 6-6 15-6 20 0 41 41 95 63 153 63 57 0 112-22 152-63 3-3 7-4 10-4 4 0 8 1 10 4 6 5 6 14 0 20z m-58-59c-63 63-165 63-228 0-6-5-6-14 0-20 6-5 15-5 20 0 52 52 136 52 188 0 2-3 6-4 10-4 3 0 7 1 10 4 5 6 5 15 0 20z m-58-58c-31 31-81 31-112 0-6-5-6-14 0-20 5-5 14-5 20 0 20 20 52 20 72 0 2-2 6-4 10-4 3 0 7 2 10 4 5 6 5 15 0 20z m245-277c-6 3-12 7-18 11l-94 64c-29 19-62 29-97 29h-173c-46 0-89-18-121-50-17-17-36-31-57-41-12-7-20-19-20-33 0-21 17-37 37-37h59c8 0 14 6 14 14 0 8-6 14-14 14h-59c-5 0-8 4-8 9 0 3 1 6 4 7 24 12 45 28 64 47 27 27 63 42 101 42h39v-105h-47c-8 0-15-6-15-14s7-14 15-14h390c12 0 22 9 22 21 0 15-9 29-22 36z m-314-29v105h105c29 0 57-9 81-25l94-64c7-4 13-8 20-12 2-1 4-2 5-4h-305z m35-50h-44c-8 0-14-6-14-14s6-15 14-15h44c8 0 14 7 14 15 0 8-6 14-14 14z m566 12l-5 7c-17 29-45 48-77 55l-37 7v186h95c20 0 36 16 36 36v277c0 20-16 36-36 36h-277c-20 0-36-16-36-36v-105c0-8 7-14 15-14s14 6 14 14v105c0 4 3 7 7 7h277c4 0 7-3 7-7v-277c0-4-3-7-7-7h-277c-4 0-7 3-7 7v80c0 7-7 14-14 14s-15-7-15-14v-80c0-20 16-36 36-36h108v-171l-19 4c-26 5-52 21-69 32l-94 64c-36 24-77 37-121 37h-173c-57 0-111-23-152-63-26-26-58-44-94-51l-20-4c-31-7-53-34-53-65v-138c0-16 10-31 25-38l57-25c3-18 12-35 25-49 19-19 43-28 67-28 25 0 49 9 67 28 12 12 20 26 24 41h473c5-15 13-29 24-41 18-18 42-28 67-28 26 0 49 10 67 28 12 12 20 26 24 41h27c29 0 53 24 53 53v74c0 15-4 31-12 44z m-165 255h18v-180l-18 3v177z m-602-447c-12-13-29-19-47-19s-34 6-46 19c-20 20-25 50-14 74 0 0 0 0 1 1 0 0 0 1 1 2 0 0 0 0 0 1 0 0 1 1 1 2 0 0 1 0 1 1 0 0 1 1 1 1 0 1 1 1 1 2 0 0 0 1 1 1 0 1 1 1 1 2 0 0 1 1 1 1 0 1 1 1 1 2 1 0 1 0 1 1 1 1 2 1 2 2 1 0 1 0 1 0 0 0 0 1 0 1 1 0 1 1 2 2 0 0 0 0 1 0 0 1 1 1 2 2 0 0 0 0 0 0 24 20 59 19 83 0 0 0 0 0 0 0 1-1 1-1 2-2 0 0 0 0 1 0 0-1 1-2 2-3 1-1 2-1 2-2 1-1 1-1 2-2 0 0 0-1 1-1 0-1 1-1 1-2 0 0 1 0 1-1 0 0 1-1 1-2 0 0 0 0 1 0 16-26 13-61-9-83z m655 0c-13-13-29-19-47-19s-34 6-46 19c-23 22-26 57-9 83 0 0 0 0 0 0 1 1 1 2 2 2 0 1 0 1 1 1 0 1 0 1 1 2 0 0 1 1 1 1 0 1 1 1 1 2 1 1 2 1 3 2 12 13 29 20 46 20s34-7 47-20c1-1 2-1 2-2 1-1 1-1 1-2 1 0 1-1 2-1 0-1 1-1 1-2 0 0 1 0 1-1 0 0 1-1 1-2 0 0 0 0 1 0 16-26 13-61-9-83z m96 74h0c0-14-11-25-25-25h-23c-1 21-8 41-21 57 0 0 0 0 0 0-1 1-2 2-3 3 0 1 0 1-1 1-1 1-1 2-2 3-1 0-1 0-1 0-12 13-27 21-44 25-7 2-15 3-23 3-6 0-12 0-18-2-18-3-35-12-49-26 0 0 0 0 0 0-1-1-2-2-3-3 0 0 0 0 0-1-1-1-2-2-3-3 0 0 0 0 0 0-13-16-21-36-21-57h-466c-1 21-8 41-21 57 0 0 0 0 0 0-1 1-2 2-3 3 0 1 0 1-1 1-1 1-2 2-3 3-4 5-9 9-15 13-15 10-34 15-52 15-24 0-48-9-67-28-1-1-2-2-3-3 0 0 0 0 0-1-1-1-2-1-3-2 0-1 0-1 0-1-1-1-2-2-2-3-1 0-1 0-1-1-2-2-4-5-5-7 0 0 0 0 0 0-1-2-2-3-2-4 0 0 0 0 0 0-5-10-9-20-10-31l-45 20c-4 2-7 7-7 12v138c0 18 12 33 29 37l21 4c41 9 78 29 108 58 35 36 82 55 132 55h173c38 0 74-11 105-32l95-64c18-12 47-30 78-36l130-26c25-5 46-20 59-41l4-8c6-9 9-19 9-29v-74z m-767 3c-8 8-19 13-31 13s-22-5-30-13c-8-8-13-19-13-30 0-12 5-23 13-31 8-8 19-13 30-13 12 0 23 5 31 13 17 17 17 44 0 61z m-20-41c-3-3-7-4-11-4-4 0-7 1-10 4-3 3-4 7-4 11 0 4 1 7 4 10 3 3 6 4 10 4 4 0 8-1 11-4 6-6 6-15 0-21z m675 41c-8 8-19 13-31 13-11 0-22-5-30-13-17-17-17-44 0-61 8-8 19-13 30-13 12 0 23 5 31 13 8 8 13 19 13 31s-5 22-13 30z m-20-41c-3-3-7-4-11-4-4 0-7 1-10 4-6 6-6 15 0 21 3 3 6 4 10 4 4 0 8-1 11-4 2-3 4-6 4-10 0-4-2-8-4-11z" horiz-adv-x="1000" />

<glyph glyph-name="zoom-in" unicode="&#xe81b;" d="M547 472h-113v114c0 10-8 19-19 19s-19-9-19-19v-114h-113c-10 0-19-8-19-18s9-19 19-19h113v-114c0-10 9-18 19-18s19 8 19 18v114h113c11 0 19 8 19 19s-8 18-19 18z m429-590l-280 292c71 72 116 170 116 280 0 218-178 396-397 396s-396-178-396-396 177-397 396-397c96 0 184 34 253 91l281-292c4-4 9-6 14-6 4 0 9 2 13 5 7 7 7 19 0 27z m-920 572c0 197 161 358 359 358s359-161 359-358-161-359-359-359-359 161-359 359z" horiz-adv-x="1000" />

<glyph glyph-name="bed" unicode="&#xe81c;" d="M983 283h-16v50c0 33-20 63-50 77v257c0 6-4 12-10 15 6 10 10 22 10 35 0 37-30 66-67 66-37 0-67-29-67-66 0-12 4-24 10-34h-586c6 10 10 22 10 34 0 37-30 66-67 66s-67-29-67-66c0-13 4-25 10-35-6-3-10-9-10-15v-257c-30-14-50-44-50-77v-50h-16c-9 0-17-7-17-16v-234c0-9 8-16 17-16h16v-84c0-9 8-16 17-16h67c9 0 16 7 16 16v84h734v-84c0-9 7-16 16-16h67c9 0 17 7 17 16v84h16c10 0 17 7 17 16v234c0 9-7 16-17 16z m-133 467c18 0 33-15 33-33s-15-34-33-34-33 15-33 34 15 33 33 33z m-700 0c18 0 33-15 33-33s-15-34-33-34-33 15-33 34 15 33 33 33z m-33-100h766v-233h-67c11 14 17 32 17 50v33c0 46-37 83-83 83h-133c-46 0-84-37-84-83v-33c0-18 6-36 17-50h-100c11 14 17 32 17 50v33c0 46-38 83-84 83h-133c-46 0-83-37-83-83v-33c0-18 6-36 17-50h-67v233z m683-150v-33c0-28-22-50-50-50h-133c-28 0-50 22-50 50v33c0 28 22 50 50 50h133c28 0 50-22 50-50z m-367 0v-33c0-28-22-50-50-50h-133c-28 0-50 22-50 50v33c0 28 22 50 50 50h133c28 0 50-22 50-50z m-366-167c0 28 22 50 50 50h766c28 0 50-22 50-50v-50h-866v50z m33-383h-33v67h33v-67z m833 0h-33v67h33v-67z m34 100h-934v200h934v-200z m-817 67h-67c-9 0-16-8-16-17s7-17 16-17h67c9 0 17 8 17 17s-8 17-17 17z m767 0h-700c-9 0-17-8-17-17s8-17 17-17h700c9 0 16 8 16 17s-7 17-16 17z" horiz-adv-x="1000" />

<glyph glyph-name="users" unicode="&#xe81d;" d="M917 94l-159 79c-15 8-25 23-25 40v56c4 5 8 10 12 16 21 29 38 61 50 96 23 11 38 34 38 61v66c0 16-6 32-16 44v89c1 9 4 64-35 109-34 39-90 58-165 58s-131-19-165-58c-24-28-32-58-35-81-28 15-62 23-100 23-173 0-184-148-184-150v-77c-10-11-16-25-16-38v-58c0-18 8-35 22-46 13-52 47-91 60-105v-46c0-13-7-25-19-31l-111-70c-43-23-69-68-69-116v-63h233 34 733v67c0 57-32 109-83 135z m-684-132v-37h-200v30c0 36 20 69 53 87l111 70c22 12 36 35 36 60v60l-6 5c0 1-44 42-57 99l-2 7-6 4c-7 5-12 13-12 22v58c0 6 4 13 11 19l6 5 0 90c0 5 9 117 150 117 40 0 73-9 100-27v-79c-11-12-17-28-17-44v-66c0-5 1-10 2-15 0-2 1-4 2-6 1-3 1-5 3-8 0 0 0 0 0 0 4-9 10-17 18-23 0 0 0-1 0-1 1-4 2-8 3-11l2-5c0 0 0-1 1-2 0-2 1-4 1-5 1-3 2-6 4-10 0-1 1-2 1-4 2-3 3-6 4-10 1 0 1-1 1-2l1-2c1-1 1-2 2-3 1-4 3-7 5-10 0-1 0-1 0-2 1-2 2-4 3-6 2-4 4-7 6-10 1-1 1-3 2-4 3-4 5-8 7-12 1 0 1-1 2-2 4-6 7-11 10-15 1-1 2-2 2-3 1-1 1-1 1-2v-55c0-16-8-31-23-39l-44-24-7 1-3-6-94-52c-49-26-79-77-79-132z m734-37h-700v37c0 43 23 83 61 103l148 81c25 14 41 40 41 68v67 0l-4 4 0 1c0 0-1 1-3 3 0 0 0 0 0 1-1 1-2 2-3 4 0 0 0 0 0 0-3 3-6 8-9 13-1 0-1 0-1 1-1 2-3 5-5 8 0 0 0 0 0 1-4 6-8 13-12 21 0 0 0 0 0 0-2 4-4 9-6 13l0 0c-1 1-1 2-1 2h0c-1 2-2 5-3 7 0 1-1 1-1 2-1 2-2 5-3 7-1 5-3 9-4 14l-1 3c0 1-1 1-1 1-1 6-3 11-4 16l-1 7-6 4c-10 6-16 16-16 28v66c0 10 4 18 12 25l5 5v104 6l0 0c-1 12 0 49 27 80 27 31 74 47 140 47 65 0 112-16 139-47 33-37 28-84 28-84l-1-106 6-5c7-7 11-15 11-25v-66c0-15-9-28-24-32l-8-2-3-9c-11-34-27-66-47-95-5-7-10-13-14-18l-4-5v-68c0-30 16-56 43-70l159-79c40-20 65-60 65-105v-34z" horiz-adv-x="1000" />

<glyph glyph-name="sunset" unicode="&#xe81e;" d="M983 208h-200c-9 156-143 276-299 267-143-8-258-123-266-267h-201c-9 0-16-7-16-16s7-17 16-17h966c10 0 17 8 17 17s-7 16-17 16z m-732 0c9 132 118 233 249 234 132-1 241-102 249-234h-498z m516-66h-550c-9 0-16-8-16-17s7-16 16-16h550c9 0 17 7 17 16s-8 17-17 17z m-50-67h-450c-9 0-17-7-17-16s8-17 17-17h450c9 0 17 7 17 17s-8 16-17 16z m-50-66h-350c-9 0-17-8-17-17s8-17 17-17h350c9 0 17 8 17 17s-8 17-17 17z m-67-67h-216c-9 0-17-8-17-17s8-16 17-16h216c9 0 17 7 17 16s-8 17-17 17z m-416 316h-167c-9 0-16-7-16-16s7-17 16-17h167c9 0 17 8 17 17s-8 16-17 16z m23 116c0 0 0 0-1 0l-183 67c-9 3-18-1-22-10-3-8 1-18 9-21 1 0 1-1 2-1l183-66c8-4 18 0 22 9 3 8-1 18-10 22z m175 174l-50 117c-3 8-13 12-22 8-8-3-12-13-8-21l50-117c2-6 8-10 15-10 2 0 5 0 7 1 8 4 12 14 8 22z m291 126c-8 3-18-1-21-9l-50-117c-4-8 0-18 8-22 2-1 5-1 7-1 7 0 13 4 15 10l50 117c4 8 0 18-9 22z m325-208c-4 8-15 11-23 7l-183-100c-8-4-11-15-6-23 2-5 8-8 14-8 3 0 6 0 8 2l183 100c8 4 11 14 7 22z m-702 4l-167 167c-7 6-17 6-24-1-6-6-6-16 0-23l167-166c7-7 17-7 24 0 6 6 6 17 0 23z m204 321c-9 0-16-7-16-16v-217c0-9 7-16 16-16s17 7 17 16v217c0 9-7 16-17 16z m395-154c-6 6-17 6-23 0l-167-167c-7-6-7-17 0-23 6-7 17-7 23-1 0 0 1 0 1 1l166 166c7 7 7 17 0 24z m88-379h-166c-9 0-17-7-17-16s8-17 17-17h166c10 0 17 8 17 17s-7 16-17 16z" horiz-adv-x="1000" />

<glyph glyph-name="consulting-message" unicode="&#xe81f;" d="M804-78c-5 0-9 2-13 5l-203 172h-449c-77 0-139 63-139 140v399c0 77 62 140 139 140h722c77 0 139-63 139-140v-399c0-77-62-140-139-140h-37v-156c0-8-4-15-12-19-2-1-5-2-8-2z m-665 815c-54 0-98-45-98-99v-399c0-55 44-99 98-99h457c4 0 9-2 13-5l175-148v133c0 11 9 20 20 20h57c54 0 98 44 98 99v399c0 54-44 99-98 99h-722z m688-188h-654c-11 0-20 9-20 21 0 11 9 20 20 20h654c11 0 20-9 20-20 0-12-9-21-20-21z m0-131h-654c-11 0-20 10-20 21 0 11 9 20 20 20h654c11 0 20-9 20-20 0-11-9-21-20-21z m0-130h-654c-11 0-20 9-20 20 0 11 9 21 20 21h654c11 0 20-10 20-21 0-11-9-20-20-20z" horiz-adv-x="1000" />

<glyph glyph-name="profile" unicode="&#xe820;" d="M498 292c148 0 268 120 268 267s-120 267-268 267-267-120-267-267 120-267 267-267z m0 464c109 0 197-88 197-197s-88-197-197-197-197 89-197 197 89 197 197 197z m-463-882h930c19 0 35 15 35 35 0 185-150 336-336 336h-328c-185 0-336-150-336-336 0-20 16-35 35-35z m301 300h328c135 0 246-100 263-230h-854c17 129 128 230 263 230z" horiz-adv-x="1000" />

<glyph glyph-name="location" unicode="&#xe821;" d="M328 166c41-59 82-110 110-144 4-5 7-9 11-14h-82c-9 0-17-7-17-16s8-17 17-17h266c10 0 17 7 17 17s-7 16-17 16h-82c4 5 7 9 11 14 28 33 69 85 110 144 41 56 78 115 110 177 34 67 51 122 51 165 1 88-35 173-97 236-4 4-11 6-16 4-6-1-11-6-12-11-2-6 0-12 4-17 57-56 88-132 88-212 0-37-16-88-48-150-31-60-67-118-107-173-41-58-81-109-108-142-9-11-17-21-24-29-3-3-8-6-13-6-5 0-9 3-13 6-7 8-15 18-24 29-26 33-67 84-108 142-40 55-76 113-107 173-32 62-48 113-48 150 0 121 72 230 183 277 75 31 159 31 234 0 5-3 12-2 16 2 5 3 8 9 7 15-1 6-5 11-10 13-170 72-365-7-437-177-17-41-26-85-26-130 0-43 17-98 51-165 32-62 69-121 110-177z m172 492c9 0 17 8 17 17s-8 17-17 17c-79 0-148-56-163-134-16-78 26-157 99-187 74-30 158-5 203 61 44 67 35 155-21 211-4 4-10 6-16 4-6-1-11-6-12-11-2-6 0-13 4-17 45-45 52-115 17-168-35-53-103-74-162-49-59 24-92 87-80 149s67 107 131 107z m494-726l-103 183c-9 17-26 27-45 27h-119c-9 0-17-8-17-17s8-17 17-17h119c7 0 13-3 16-9l103-183c2-5 2-11 0-16-4-5-10-9-17-8h-896c-7-1-13 3-16 8-3 5-3 11-1 16l103 183c3 6 10 9 16 9h119c9 0 17 8 17 17s-8 17-17 17h-119c-19 0-36-10-45-27l-103-183c-8-15-8-34 1-48 9-16 26-26 45-26h896c19 0 36 10 45 26 9 14 9 33 1 48z m-177 126h-67c-3 0-6-1-9-2l-50-34c-8-5-10-15-5-23 5-8 16-10 23-5l46 31h62c9 0 16 7 16 17 0 9-7 16-16 16z m-100-116c0-10 7-17 16-17h134c9 0 16 7 16 17s-7 16-16 16h-134c-9 0-16-7-16-16z m-417 50c7 0 14 4 16 12 2 7-1 14-7 18l-50 34c-2 1-6 2-9 2h-67c-9 0-16-7-16-16 0-10 7-17 16-17h62l46-31c3-1 6-2 9-2z m-167-34c-9 0-16-7-16-16s7-17 16-17h134c9 0 16 7 16 17s-7 16-16 16h-134z" horiz-adv-x="1000" />

<glyph glyph-name="phone-call" unicode="&#xe822;" d="M804-150c-42 0-92 10-147 31-122 46-253 136-372 254-118 119-208 251-254 372-41 110-41 200 0 242 6 6 12 12 18 19 38 39 81 84 137 82 39-2 77-26 116-74 114-142 63-193 3-252l-11-10c-9-10-28-55 144-226 56-56 103-97 141-122 24-16 67-39 85-22l11 11c58 60 109 111 251-3 48-39 72-77 74-116 2-56-43-99-83-137-6-6-12-12-18-18-21-21-54-31-95-31z m-622 966c-40 0-76-38-108-72-7-6-13-13-19-19-31-31-28-112 8-206 44-117 131-245 246-360 115-115 243-202 360-246 94-36 175-39 206-8 6 6 13 12 19 19 35 32 74 70 72 111-1 28-21 59-61 91-118 95-151 61-206 6l-11-11c-26-27-69-21-127 17-40 26-90 68-147 126-142 142-188 229-143 274l10 11c56 54 90 88-5 206-32 40-63 60-91 61-1 0-2 0-3 0z" horiz-adv-x="1000" />

<glyph glyph-name="fax" unicode="&#xe823;" d="M917 150h-467c-9 0-17-7-17-17s8-16 17-16h467c9 0 16 7 16 16s-7 17-16 17z m-67 333h-67c-9 0-16-7-16-16s7-17 16-17h67c9 0 17 8 17 17s-8 16-17 16z m0-200h-67c-9 0-16-7-16-16s7-17 16-17h67c9 0 17 8 17 17s-8 16-17 16z m0 100h-67c-9 0-16-7-16-16s7-17 16-17h67c9 0 17 8 17 17s-8 16-17 16z m-433-300h-17v717c0 28-22 50-50 50h-200c-28 0-50-22-50-50v-667c0-9 8-16 17-16s16 7 16 16v667c0 9 8 17 17 17h200c9 0 17-8 17-17v-800c0-9-8-17-17-17h-200c-9 0-17 8-17 17v67c0 9-7 16-16 16h-34c-30 0-50 20-50 50v600c0 18 10 34 25 43 8 5 11 15 6 23-4 8-14 11-22 6-26-15-42-42-42-72v-600c0-48 35-83 83-83h17v-50c0-28 22-50 50-50h200c28 0 50 22 50 50v50h17c9 0 16 8 16 17s-7 16-16 16z m466 0c-9 0-16-7-16-16v-184h-367v184c0 9-7 16-17 16s-16-7-16-16v-200c0-10 7-17 16-17h400c10 0 17 7 17 17v200c0 9-7 16-17 16z m-300-133h167c9 0 17 7 17 17 0 9-8 16-17 16h-167c-9 0-16-7-16-16 0-10 7-17 16-17z m0 67h200c10 0 17 7 17 16s-7 17-17 17h-200c-9 0-16-7-16-17s7-16 16-16z m-66 333h66c10 0 17 8 17 17s-7 16-17 16h-66c-9 0-17-7-17-16s8-17 17-17z m0 100h66c10 0 17 8 17 17s-7 16-17 16h-66c-9 0-17-7-17-16s8-17 17-17z m0-200h66c10 0 17 8 17 17s-7 16-17 16h-66c-9 0-17-7-17-16s8-17 17-17z m400 567h-467c-9 0-17-8-17-17 0-9 8-17 17-17h467c27 0 50-22 50-50v-616c0-18-10-34-25-43-8-5-11-15-6-23 3-6 9-8 14-8 3 0 6 0 9 2 25 15 41 42 41 72v616c0 46-37 84-83 84z m-200-434h-67c-9 0-17-7-17-16s8-17 17-17h67c9 0 16 8 16 17s-7 16-16 16z m150 284c0 9-8 16-17 16h-333c-9 0-17-7-17-16v-100c0-9 8-17 17-17h333c9 0 17 8 17 17v100z m-34-84h-300v67h300v-67z m-116-300h-67c-9 0-17-7-17-16s8-17 17-17h67c9 0 16 8 16 17s-7 16-16 16z m0 200h-67c-9 0-17-7-17-16s8-17 17-17h67c9 0 16 8 16 17s-7 16-16 16z" horiz-adv-x="1000" />

<glyph glyph-name="mail" unicode="&#xe824;" d="M810 156c-4 0-8 2-11 5l-186 174c-6 6-7 16-1 23 7 6 17 6 23 0l186-174c6-6 7-16 0-22-3-4-7-6-11-6z m-620 0c-4 0-8 2-11 6-7 6-6 16 0 22l186 174c6 6 17 6 23 0 6-7 5-17-1-23l-186-174c-3-3-7-5-11-5z m729-161h-838c-45 0-81 36-81 80v550c0 44 36 81 81 81h838c45 0 81-37 81-81v-550c0-44-36-80-81-80z m-838 678c-27 0-49-21-49-48v-550c0-26 22-48 49-48h838c27 0 49 22 49 48v550c0 27-22 48-49 48h-838z m419-404c-21 0-43 7-59 21l-414 362c-7 5-8 16-2 22 6 7 16 8 23 2l414-361c21-18 55-18 76 0l414 360c6 6 16 6 22-1 6-7 5-17-1-23l-414-361c-16-14-38-21-59-21z" horiz-adv-x="1000" />

<glyph glyph-name="check" unicode="&#xe825;" d="M1356 830c-27 27-71 27-98 0l-824-816-316 314c-27 26-71 26-98 0-27-27-27-70 0-96l366-362c27-27 70-27 97 0l873 864c27 26 27 69 0 96z" horiz-adv-x="1376" />

<glyph glyph-name="television" unicode="&#xe826;" d="M303-75h394l-197 315-197-315z m60 33l137 219 137-219h-274z m-363 817v-667h367c9 0 16 8 16 17s-7 17-16 17h-334v600h934v-600h-334c-9 0-16-8-16-17s7-17 16-17h367v667h-1000z" horiz-adv-x="1000" />

<glyph glyph-name="half-moon" unicode="&#xe827;" d="M978 198c-6 4-14 4-19-1-147-130-371-116-501 31s-115 371 32 501c40 36 88 62 141 76 8 2 13 11 11 20-2 6-6 10-12 11-38 10-77 14-115 14-277 0-500-224-500-500 0-276 223-500 500-500 210 0 398 132 470 329 2 7 0 15-7 19z m-463-316c-259 0-468 210-468 468 0 258 209 468 468 468 16 0 32-1 49-3-195-88-281-317-193-512s318-281 512-193c16 7 32 16 47 25-80-155-241-252-415-253z" horiz-adv-x="1000" />

<glyph glyph-name="clound-sun" unicode="&#xe828;" d="M437 604l-55 56c-7 7-18 8-26 2-8-7-9-18-2-26 0-1 1-1 2-2l55-56c8-6 19-5 26 2 6 7 6 17 0 24z m467 53c-7 8-18 9-26 2-1-1-2-1-2-2l-56-55c-8-7-9-18-2-26 6-8 18-9 26-2 0 0 1 1 2 2l55 55c8 6 9 18 3 26z m-332 11c0 1 0 1-1 2l-20 76c-2 9-11 16-21 14s-16-12-14-22c0-1 0-1 0-2l20-75c2-10 12-16 22-14s16 11 14 21z m250-389c-3 3-7 6-10 10l3 5c3 7 7 14 10 21 43 107-10 229-117 272 0 0 0 0 0 0-97 39-207 0-259-91-126 36-257-38-292-164-6-21-9-43-9-65 0-3 0-6 0-9-88-6-154-82-148-170 6-83 75-147 158-148h0 524c109 0 198 89 198 198 0 53-20 103-58 141z m-255 274c41 16 86 16 127 0 89-35 132-136 97-224-3-6-6-12-9-18v-2c-51 30-111 35-167 16-10 40-30 77-60 107 21 38 66 55 106 39 10-3 20 2 23 12 3 9-1 18-9 22-55 22-117 1-148-48-14 10-28 19-44 26 20 32 49 56 84 70z m153-572c-12-3-25-4-38-4h-523c-68 0-123 55-123 122 0 33 13 64 36 87l0 0c23 23 54 36 86 36h5 4c10-1 18 6 19 16 0 2 0 4 0 5-1 4-1 7-1 12 0 3 0 8 0 12 1 111 92 200 203 198 98-1 180-72 196-168 1-10 10-17 20-16 2 1 4 1 6 2 11 6 23 10 35 13 87 21 174-33 195-120 21-87-33-174-120-195z m279 503c-3 9-12 15-21 13l-76-20c-9-3-15-13-13-23 3-9 13-15 22-13 0 0 0 0 1 0l75 20c10 3 15 14 12 23z m-13-178l-75 21c-10 3-20-3-23-13s3-20 13-22l75-21c10-3 20 3 23 12 3 10-3 20-13 23z m-257 452c-10 3-20-3-22-13l-21-75c-3-10 3-20 12-23 0 0 1 0 1 0 9-3 20 3 22 12 0 0 1 1 1 1l20 75c2 10-3 20-13 23z" horiz-adv-x="1000" />

<glyph glyph-name="cloudy-night" unicode="&#xe829;" d="M543 556c10 11 4 28-10 31-13 3-25-12-20-25 5-12 21-14 30-6z m-30 6c0 1 1-1 0 0l0 0z m478-94c-7 4-16 3-22-3-13-14-29-25-47-33-35-16-74-16-110-2-35 14-63 41-79 76-32 72 2 157 74 189 18 8 37 12 56 12 8 0 15 6 17 14 2 8-2 16-9 20-67 34-145 36-214 6-54-24-98-66-124-119-4-9-1-20 8-24 9-5 20-1 24 8 23 45 60 81 107 102 39 17 81 22 123 15-1-1-2-1-2-1-91-40-132-146-93-237 19-44 55-77 99-95 45-17 94-16 138 3 0 0 1 0 2 1-23-35-56-63-95-80-8-4-17-7-25-10-23 62-82 107-152 107-19 0-39-4-57-11-14 43-41 81-76 110-42 34-95 52-148 52-127 0-231-100-236-225-40-12-76-36-103-69-30-37-47-84-47-132 0-116 94-210 210-210h546c94 0 171 77 171 171 0 67-39 128-99 156 0 5-1 11-1 16 11 3 21 7 32 12 68 30 120 88 140 160 3 8-1 17-8 21z m-100-365c0-74-60-135-135-135h-546c-96 0-174 78-174 174 0 40 14 78 39 109 24 30 59 52 97 60 8 2 14 10 14 18l0 1c0 1 0 2 0 3 0 110 90 199 200 199 46 0 89-15 125-44 35-28 60-68 70-111 1-6 5-10 10-12 5-3 11-3 16 0 18 11 39 16 60 16 69 0 125-56 125-124 0-3 0-5-1-9 0-8 5-15 12-18 53-19 88-70 88-127z" horiz-adv-x="1000" />

<glyph glyph-name="cloud" unicode="&#xe82a;" d="M850 413c-9 150-133 270-282 270-90 0-178-44-232-116-2 0-3 1-4 1-3 2-7 3-10 5-2 1-4 1-6 2-3 1-7 2-10 3-2 1-4 1-6 2-4 0-8 1-11 2-2 0-4 0-5 0-6 1-12 1-17 1-83 0-150-67-150-150 0-2 0-4 0-6v0c-69-38-117-117-117-196 0-118 96-214 214-214h409c1 0 3 0 5 0l1 0 2 0c2 0 3 0 5 0h164c110 0 200 90 200 200 0 92-64 174-150 196z m-50-363h-164c-1 0-2 0-3 0l-4 0-4 0c0 0-1 0-2 0h-409c-100 0-181 81-181 181 0 69 45 141 108 171l9 4v11c0 2 0 4 0 6l0 3 0 3c0 2 0 3 0 4 0 65 52 117 117 117 5 0 10 0 15-1 1 0 3 0 4-1 4 0 9-1 13-3 1 0 1 0 2 0 5-2 9-3 14-5 1-1 2-2 3-2 4-2 8-4 12-7 32-21 53-57 53-98 0-9 8-16 17-16s17 7 17 16c0 46-21 87-54 115 48 62 127 102 205 102 129 0 236-102 248-231-17 1-43 1-68-2-10-2-16-10-14-19 1-9 8-15 16-15 1 0 2 0 3 1 37 5 75 0 78 0 77-15 136-87 136-167 0-92-75-167-167-167z" horiz-adv-x="1000" />

<glyph glyph-name="cloudy" unicode="&#xe82b;" d="M639 11h-478c-89 0-161 72-161 161 0 87 70 159 157 161 31 107 129 181 242 181 93 0 177-50 221-132 7 0 13 1 19 1 103 0 186-84 186-186 0-102-83-186-186-186z m-478 297c-75 0-136-61-136-136 0-75 61-136 136-136h478c89 0 161 72 161 161 0 89-72 161-161 161-7 0-15-1-24-2-6-1-11 2-13 7-39 78-117 126-203 126-105 0-195-71-220-172-2-6-7-10-13-10l-5 1z m478-297c-6 0-12 6-12 13s6 12 12 12c89 0 161 72 161 161 0 89-72 161-161 161-46 0-90-20-121-55-4-5-12-6-17-1-6 4-6 12-2 17 36 41 87 64 140 64 103 0 186-84 186-186 0-102-83-186-186-186z m175 175c-7 0-12 5-12 12s5 13 12 13c89 0 161 72 161 161 0 88-72 161-161 161-7 0-15-1-25-3-5 0-10 2-13 7-38 78-116 127-203 127-104 0-195-71-219-172-2-6-7-10-13-10l-3 0c-7 0-14 6-14 13 0 5 3 10 8 12 30 107 128 182 241 182 94 0 178-51 222-133 7 1 13 2 19 2 103 0 186-84 186-186 0-103-83-186-186-186z m0 0c-7 0-12 5-12 12s5 13 12 13c89 0 161 72 161 161 0 88-72 161-161 161-46 0-91-21-121-56-5-5-13-5-18-1-5 5-5 13-1 18 35 40 86 64 140 64 103 0 186-84 186-186 0-103-83-186-186-186z" horiz-adv-x="1000" />

<glyph glyph-name="rain" unicode="&#xe82c;" d="M831 156h-53c-9 0-16 8-16 17s7 17 16 17h53c75 0 137 61 137 137 0 64-44 119-106 133-8 2-13 10-13 18 1 8 1 16 1 25 0 172-140 313-313 313-148 0-277-105-307-251-1-7-8-13-16-13-99 0-180-82-180-181 0-100 81-181 181-181h44c9 0 17-8 17-17 0-9-8-17-17-17h-44c-119 0-215 96-215 215 0 113 89 207 200 214 38 154 178 264 337 264 191 0 347-155 347-346 0-5 0-9 0-14 70-23 117-87 117-162 0-94-76-171-170-171z m0 0m-705 198c-10 0-17 8-17 17 0 72 59 131 131 131 10 0 17-7 17-17 0-9-7-16-17-16-54 0-97-44-97-98 0-9-8-17-17-17z m0 0m387-259c-46 0-84 37-84 84 0 39 58 152 69 175 6 11 24 11 30 0 11-23 69-136 69-175 0-47-38-84-84-84z m0 214c-24-49-50-111-50-130 0-28 22-51 50-51 28 0 50 23 50 51 0 19-26 81-50 130z m0 0m168-399c-47 0-84 38-84 84 0 39 57 153 69 175 6 12 24 12 30 0 11-22 69-136 69-175 0-46-38-84-84-84z m0 214c-24-49-51-110-51-130 0-28 23-50 51-50 27 0 50 22 50 50 0 20-27 81-50 130z m0 0m-336-214c-46 0-84 38-84 84 0 39 58 153 69 175 6 12 24 12 30 0 12-22 69-136 69-175 0-46-38-84-84-84z m0 214c-23-49-50-110-50-130 0-28 22-50 50-50 28 0 51 22 51 50 0 20-27 81-51 130z m0 0m420 356c-10 0-17 8-17 17 0 120-98 218-218 218-10 0-17 8-17 17s7 17 17 17c138 0 251-113 251-252 0-9-7-17-16-17z m0 0" horiz-adv-x="1000" />

<glyph glyph-name="rain-sun" unicode="&#xe82d;" d="M639 136h-40c-9 0-16 7-16 16s7 16 16 16h40c56 0 102 46 102 102 0 47-32 88-79 99-7 2-12 9-12 17 1 6 1 12 1 19 0 130-106 236-237 236-112 0-210-79-232-189-1-7-8-13-15-13-75 0-135-61-135-135 0-75 60-136 135-136h34c9 0 16-7 16-16s-7-16-16-16h-34c-92 0-167 75-167 168 0 87 68 160 154 166 30 118 137 203 260 203 148 0 269-120 269-268 0-3 0-6-1-9 54-18 90-68 90-126 0-74-60-134-133-134z m0 0m64 269c-13 0-27 2-41 6-9 2-14 11-11 19 2 8 10 14 19 11 86-22 165 44 165 128 0 72-59 132-132 132-58 0-110-40-126-96-3-8-12-13-20-10-8 2-13 11-11 19 20 69 85 118 157 118 90 0 163-73 163-163 0-90-73-164-163-164z m0 0m-604-117c-9 0-16 7-16 16 0 57 47 103 104 103 9 0 16-7 16-16 0-8-7-15-16-15-40 0-72-33-72-72 0-9-7-16-16-16z m0 0m297-199c-37 0-67 30-67 67 0 31 44 119 53 136 5 10 22 10 28 0 9-17 53-105 53-136 0-37-30-67-67-67z m0 160c-18-37-36-79-36-93 0-19 16-35 36-35 19 0 35 16 35 35 0 14-18 56-35 93z m0 0m128-301c-37 0-67 30-67 67 0 31 44 118 53 136 5 10 23 10 28 0 9-18 53-105 53-136 0-37-30-67-67-67z m0 160c-18-37-36-80-36-93 0-20 16-36 36-36 20 0 36 16 36 36 0 13-18 56-36 93z m0 0m-257-160c-37 0-67 30-67 67 0 31 44 118 53 136 6 10 23 10 28 0 9-18 53-105 53-136 0-37-30-67-67-67z m0 160c-17-37-35-80-35-93 0-20 16-36 35-36s36 16 36 36c0 13-18 56-36 93z m0 0m321 277c-8 0-15 7-15 15 0 91-74 164-165 164-8 0-15 7-15 16 0 9 7 16 15 16 108 0 196-88 196-196 0-8-7-15-16-15z m0 0m100 360c-8 0-15 7-15 16v73c0 9 7 16 15 16s16-7 16-16v-73c0-9-7-16-16-16z m0 0m296-199h-78c-9 0-16 7-16 15 0 9 7 16 16 16h78c9 0 16-7 16-16 0-8-7-15-16-15z m0 0m-296 199c-8 0-15 7-15 16v73c0 9 7 16 15 16s16-7 16-16v-73c0-9-7-16-16-16z m0 0m156-26c-4 0-8 1-11 4-6 6-7 16-1 22l52 58c5 6 15 7 22 1 6-6 7-16 1-22l-52-58c-3-3-7-5-11-5z m0 0m28-375c-4 0-8 2-11 5l-50 55c-6 6-5 16 1 22 6 6 16 5 22-1l50-55c6-6 5-16-1-22-3-3-7-4-11-4z m0 0m-318 349c-4 0-8 1-12 5l-49 54c-6 7-6 17 1 23 6 5 16 5 22-1l50-55c5-6 5-16-1-22-3-3-7-4-11-4z m0 0" horiz-adv-x="1000" />

<glyph glyph-name="rain-night" unicode="&#xe82e;" d="M711 161h-45c-9 0-17 8-17 17 0 10 8 18 17 18h45c63 0 114 51 114 113 0 53-36 99-88 111-8 2-14 10-13 18 0 7 1 14 1 21 0 145-119 264-264 264-125 0-233-89-258-211-2-8-9-14-17-14-83 0-151-68-151-151 0-83 68-151 151-151h38c10 0 17-8 17-18 0-9-7-17-17-17h-38c-102 0-186 83-186 186 0 97 76 178 171 185 34 132 153 226 290 226 165 0 299-134 299-299 0-3 0-6-1-9 60-21 101-76 101-141 0-82-67-148-149-148z m0 0m125 273c-36 0-72 10-104 28-8 5-11 16-6 24 5 9 16 11 24 7 52-31 119-30 170-2-99 0-179 81-179 179 0 58 28 110 71 143-75-10-136-70-147-147-1-10-10-16-19-15-10 1-17 10-15 20 16 118 131 202 253 173 8-2 14-9 14-17 0-8-5-15-13-17-64-16-109-74-109-140 0-79 65-144 145-144 19 0 37 3 55 11 7 3 16 0 21-6 4-7 4-16-1-22-40-47-98-75-160-75z m0 0m-726-105c-9 0-17 8-17 17 0 64 51 116 115 116 10 0 17-8 17-18 0-10-7-17-17-17-44 0-80-36-80-81 0-9-8-17-18-17z m0 0m330-221c-41 0-74 33-74 75 0 34 49 131 59 151 6 11 25 11 31 0 10-20 59-117 59-151 0-42-34-75-75-75z m0 178c-19-41-39-89-39-103 0-22 17-40 39-40s40 18 40 40c0 14-20 62-40 103z m0 0m143-335c-41 0-74 33-74 74 0 35 49 132 59 151 6 12 25 12 31 0 10-19 59-116 59-151 0-41-34-74-75-74z m0 178c-19-41-39-89-39-104 0-21 17-39 39-39 22 0 40 18 40 39 0 15-20 63-40 104z m0 0m-286-178c-41 0-74 33-74 74 0 35 49 132 59 151 6 12 25 12 31 0 10-19 59-116 59-151 0-41-33-74-75-74z m0 178c-19-41-39-89-39-104 0-21 17-39 39-39s40 18 40 39c0 15-20 63-40 104z m0 0m358 308c-10 0-18 8-18 17 0 101-82 183-182 183-10 0-18 8-18 17s8 18 18 18c120 0 217-98 217-218 0-9-8-17-17-17z m0 0" horiz-adv-x="1000" />

<glyph glyph-name="thunderstorm" unicode="&#xe82f;" d="M699 659c-5 0-11 0-16-1-24 77-77 140-144 171-31 14-63 21-96 21-87 0-167-50-214-131-17 3-36 4-53 2-8-1-14-9-13-17 1-8 8-14 16-13 18 2 37 1 54-4 7-1 14 2 17 8 40 77 114 125 193 125 29 0 57-6 84-18 63-29 112-90 131-164 2-8 9-13 17-11 8 2 16 2 24 2 77 0 139-71 139-158 0-87-62-158-139-158l-214 0 105 251c3 7 0 15-6 19-6 4-14 2-19-3l-236-267h-133c-92 0-166 85-166 189 0 40 10 77 30 109 19 31 45 55 76 68 7 4 11 12 8 20s-13 11-20 7c-36-16-67-43-89-79-23-37-35-80-35-125 0-121 88-219 196-219h107l-30-33c-4-5-5-11-2-16 2-6 7-9 13-9h45l-90-131c-3-4-4-10-1-15 2-5 7-8 13-8h51l-108-199c-4-6-2-14 3-19 3-2 6-3 10-3 3 0 7 1 9 4l160 139c6 6 7 15 1 21-5 7-15 7-21 2l-97-85 81 148c2 4 2 10 0 14-3 5-8 8-13 8h-48l90 130c3 5 3 11 1 16-3 5-8 8-13 8h-40l211 239-79-190c-2-5-1-10 2-14s7-7 12-7h51l-111-157c-3-4-3-10-1-15 3-5 8-8 13-8h40l-58-51c-6-6-7-15-1-21 5-6 15-7 21-2l88 77c4 5 6 11 4 17-3 6-8 9-14 9h-51l106 151h149c93 0 169 84 169 188 0 104-76 188-169 188z m0 0" horiz-adv-x="1000" />

<glyph glyph-name="snow" unicode="&#xe830;" d="M831 526h-159c-8 0-15 6-15 15 0 8 7 15 15 15h159c40 0 77 39 77 82 0 30-19 57-47 69-6 2-9 7-10 12-6 58-56 102-116 102-40 0-77-19-99-52-4-5-10-8-16-6-32 9-65 3-91-14-7-5-16-3-21 4-4 7-2 17 5 21 30 20 67 28 104 20 28 36 71 58 118 58 73 0 134-52 145-121 36-18 58-54 58-93 0-60-50-112-107-112z m0 0m-284-197h-351c-108 0-196 89-196 197 0 108 88 196 196 196 14 0 28-1 42-4 39 54 102 86 169 86 105 0 192-76 206-179 51-25 84-77 84-134 0-86-70-162-150-162z m-351 363c-91 0-166-75-166-166 0-92 75-166 166-166h351c63 0 120 62 120 131 0 48-29 91-74 110-5 2-8 7-9 12-9 92-85 161-177 161-61 0-117-31-150-82-3-5-10-8-16-6-15 4-30 6-45 6z m0 0m279-725c-2 0-3 0-5 1-8 2-12 11-10 19l52 166c2 8 11 13 18 10 8-2 13-11 10-19l-51-166c-2-7-8-11-14-11z m0 0m81 16c-4 0-9 2-12 6l-111 134c-5 6-4 16 2 21 7 5 16 5 21-2l112-134c5-6 4-16-2-21-3-3-6-4-10-4z m0 0m-139 43c-7 0-13 4-15 10-2 8 3 17 11 19l167 50c8 2 16-2 18-10 3-8-2-17-10-19l-167-50c-1 0-3 0-4 0z m0 0m327 85c-2 0-3 0-5 1-8 2-12 11-10 19l52 166c2 8 10 13 18 10 8-2 13-11 10-19l-51-166c-2-7-8-11-14-11z m0 0m81 17c-4 0-9 1-12 5l-111 134c-5 6-4 16 2 21s16 5 21-2l112-134c5-6 4-16-2-21-3-2-7-3-10-3z m0 0m-139 42c-7 0-13 4-15 10-2 8 3 17 11 19l167 50c7 2 16-2 18-10 3-8-2-17-10-19l-167-50c-1 0-3 0-4 0z m0 0m-528-134c-1 0-3 0-4 0-8 3-13 11-10 19l51 167c3 8 11 12 19 10 8-3 12-11 10-19l-51-167c-2-6-8-10-15-10z m0 0m82 16c-5 0-9 2-12 6l-111 133c-6 7-5 16 2 22 6 5 16 4 21-2l111-134c6-7 5-16-2-21-3-3-6-4-9-4z m0 0m-140 42c-6 0-12 4-14 11-2 8 2 16 10 19l167 49c8 3 16-2 19-10 2-8-2-16-10-18l-167-50c-2-1-3-1-5-1z m0 0m-11 435c-8 0-15 7-15 15 0 55 44 99 99 99 8 0 15-7 15-15 0-8-7-15-15-15-38 0-69-31-69-69 0-8-6-15-15-15z m0 0" horiz-adv-x="1000" />

<glyph glyph-name="fog" unicode="&#xe831;" d="M979 725c-56 0-84 25-109 47-23 19-42 36-83 36-40 0-59-17-82-36-25-22-54-47-109-47s-85 25-110 47c-22 19-42 36-82 36-40 0-60-17-82-36-25-22-54-47-110-47-55 0-84 25-109 47-23 19-42 36-82 36-12 0-21 10-21 21 0 12 9 21 21 21 56 0 84-25 109-47 23-19 42-36 82-36 41 0 60 17 83 36 25 22 53 47 109 47 56 0 84-25 109-47 23-19 42-36 83-36 40 0 59 17 82 36 25 22 54 47 109 47 56 0 85-25 110-47 23-19 42-36 82-36 12 0 21-10 21-21 0-12-9-21-21-21z m0 0m0-208c-56 0-84 25-109 47-23 19-42 36-83 36-40 0-59-17-82-36-25-22-54-47-109-47s-85 25-110 47c-22 19-42 36-82 36-40 0-60-17-82-36-25-22-54-47-110-47-55 0-84 25-109 47-23 19-42 36-82 36-12 0-21 9-21 21 0 11 9 21 21 21 56 0 84-25 109-47 23-20 42-37 82-37 41 0 60 17 83 37 25 22 53 47 109 47 56 0 84-25 109-47 23-20 42-37 83-37 40 0 59 17 82 37 25 22 54 47 109 47 56 0 85-25 110-47 23-20 42-37 82-37 12 0 21-9 21-20s-9-21-21-21z m0 0m0-209c-56 0-84 25-109 47-23 20-42 37-83 37-40 0-59-17-82-37-25-22-54-47-109-47s-85 25-110 47c-22 20-42 37-82 37-40 0-60-17-82-37-25-22-54-47-110-47-55 0-84 25-109 47-23 20-42 37-82 37-12 0-21 9-21 21s9 20 21 20c56 0 84-24 109-46 23-20 42-37 82-37 41 0 60 17 83 37 25 22 53 46 109 46 56 0 84-24 109-46 23-20 42-37 83-37 40 0 59 17 82 37 25 22 54 46 109 46 56 0 85-24 110-46 23-20 42-37 82-37 12 0 21-9 21-21 0-11-9-21-21-21z m0 0m0-208c-56 0-84 25-109 47-23 19-42 36-83 36-40 0-59-17-82-36-25-22-54-47-109-47s-85 25-110 47c-22 19-42 36-82 36-40 0-60-17-82-36-25-22-54-47-110-47-55 0-84 25-109 47-23 19-42 36-82 36-12 0-21 10-21 21 0 12 9 21 21 21 56 0 84-25 109-47 23-19 42-36 82-36 41 0 60 17 83 36 25 22 53 47 109 47 56 0 84-25 109-47 23-19 42-36 83-36 40 0 59 17 82 36 25 22 54 47 109 47 56 0 85-25 110-47 23-19 42-36 82-36 12 0 21-10 21-21 0-12-9-21-21-21z m0 0" horiz-adv-x="1000" />

<glyph glyph-name="long-arrow-left" unicode="&#xe832;" d="M2111 405h-1506v445l-605-500 605-500v445h1506v110z" horiz-adv-x="2111" />

<glyph glyph-name="long-arrow-right" unicode="&#xe833;" d="M0 295h1506v-445l605 500-605 500v-445h-1506l0-110z" horiz-adv-x="2111" />

<glyph glyph-name="price-tag" unicode="&#xe834;" d="M866 240c-8 5-18 2-23-6l-191-326c-14-24-45-32-68-18l-37 24c-8 5-18 2-23-5-5-8-3-18 5-23l38-25c13-7 27-11 41-11 29 0 57 15 73 42l191 325c4 8 2 19-6 23z m50 610h-267c-51 0-90-16-128-55-7-6-7-17 0-23 6-7 17-7 23 0 33 32 62 45 105 45h267c28 0 50-23 50-50v-267c0-43-13-72-45-105l-495-496c-19-19-52-19-71 0l-306 307c-10 9-15 22-15 35 0 13 5 26 15 35l447 447c7-1 14-3 21-5 68-18 121-37 161-54-8-14-12-31-12-47 0-56 45-100 100-100 55 0 100 44 100 100 0 55-45 100-100 100-9 0-17-8-17-17s8-17 17-17c37 0 67-30 67-66 0-37-30-67-67-67s-67 30-67 67c0 12 4 23 10 34 29-14 47-26 54-33-3-1-8-2-15-3-9-1-16-9-15-18 1-9 8-15 16-15 1 0 1 0 2 0 10 1 41 4 47 26 17 61-224 129-272 142-74 20-145 34-201 38-67 6-100-1-106-25-3-11-11-40 124-94 8-3 18 1 21 10 4 8 0 18-9 21-65 26-92 45-101 54 21 6 91 4 204-22l-433-432c-16-16-24-37-24-59 0-22 8-43 24-59l307-306c15-16 36-25 58-25 23 0 44 9 59 25l496 495c38 39 54 77 54 129v267c0 46-37 83-83 83z m-370-438c-7 6-17 6-24 0l-9-9c-13 8-29 14-46 14-46 0-83-38-83-84 0-25 10-44 19-59 9-13 14-32 14-41 0-27-22-50-50-50s-50 23-50 50c0 10 3 20 9 28 5 8 3 18-4 24-8 5-18 3-23-5-10-14-15-30-15-47 0-17 5-33 14-46l-9-9c-7-6-7-17 0-23 3-4 7-5 12-5 4 0 8 1 12 5l9 9c13-9 28-14 45-14 46 0 84 37 84 83 0 16-8 41-19 59-10 16-15 28-15 41 0 28 23 50 50 50 14 0 26-5 35-14 0 0 0 0 1-1 0 0 0 0 1 0 8-9 13-21 13-35s-5-26-14-35c-7-7-7-17 0-24 6-6 17-6 23 0 16 16 25 37 25 59 0 17-5 33-14 46l9 9c6 7 6 17 0 24z" horiz-adv-x="1000" />

<glyph glyph-name="pause-lines" unicode="&#xe835;" d="M644 819c0 17 13 31 30 31s31-14 31-31v-938c0-17-14-31-31-31s-30 14-30 31v938z m-348 0c0 17 13 31 30 31 17 0 30-14 30-31v-938c0-17-13-31-30-31-17 0-30 14-30 31v938z" horiz-adv-x="1000" />

<glyph glyph-name="play-button" unicode="&#xe836;" d="M859 370l-691 476c-7 5-16 5-24 1-8-4-13-12-13-21v-952c0-9 5-17 13-21 3-2 7-3 11-3 5 0 9 1 13 4l691 476c6 5 10 12 10 20s-4 15-10 20z m-680-451v862l624-431-624-431z" horiz-adv-x="1000" />

<glyph glyph-name="001-puzzle" unicode="&#xe837;" d="M948 850h-896c-29 0-52-23-52-52v-896c0-29 23-52 52-52h896c29 0 52 23 52 52v896c0 29-23 52-52 52z m18-52v-431h-160c-7 0-13-3-16-9s-2-13 2-18c12-17 19-38 18-59 0-47-31-86-69-86s-69 39-69 86c0 21 7 42 19 59 4 5 5 12 2 18-3 6-9 9-16 9h-160v131c17-7 34-10 52-10 67 0 121 46 121 103s-54 104-121 104c-18 0-35-3-52-10v131h431c10 0 18-8 18-18z m-931 0c0 10 7 18 17 18h431v-160c0-7 3-13 9-16s13-2 18 2c17 12 38 19 59 18 48 0 86-31 86-69s-38-69-86-69c-21 0-42 7-59 19-5 4-12 5-18 2-6-3-9-9-9-16v-160h-131c7 17 10 34 10 52 0 67-46 121-103 121s-104-54-104-121c0-18 4-35 10-52h-130z m0-896v431h160c6 0 12 3 15 9s2 13-2 18c-12 17-19 38-18 59 0 48 31 86 69 86s69-38 69-86c0-21-7-42-19-59-4-5-4-12-2-18 3-6 9-9 16-9h160v-131c-17 7-34 10-52 10-66 0-121-46-121-103s55-104 121-104c18 0 35 4 52 10v-131h-431c-10 0-17 8-17 18z m931 0c0-10-8-18-18-18h-431v161c0 6-3 12-9 15s-13 2-18-2c-17-12-38-19-59-18-47 0-86 31-86 69s39 69 86 69c21 0 42-7 59-19 5-4 12-4 18-2 6 3 9 9 9 16v160h131c-7-17-10-34-10-52 0-66 46-121 103-121s104 55 104 121c0 18-3 35-10 52h131z m0 0" horiz-adv-x="1000" />

<glyph glyph-name="002-settings" unicode="&#xe838;" d="M949 455l-70 12c-8 24-17 46-29 68l42 58c17 25 15 58-7 79l-62 63c-12 11-27 18-44 18-13 0-25-4-35-12l-59-41c-22 12-46 22-70 29l-12 69c-5 30-31 52-61 52h-88c-30 0-56-22-61-52l-12-71c-23-7-46-16-68-28l-57 41c-11 8-23 12-36 12-17 0-32-7-44-19l-62-62c-22-21-25-55-7-79l42-59c-12-22-21-45-28-68l-69-12c-30-5-52-31-52-61v-88c0-30 22-56 52-61l71-12c7-24 17-46 28-68l-41-57c-17-25-15-59 7-80l62-62c12-12 27-18 44-18 13 0 25 4 35 11l59 42c21-11 43-20 66-27l12-70c5-30 31-52 61-52h88c30 0 56 22 61 52l12 70c24 7 46 16 68 28l58-41c10-8 23-12 36-12l0 0c16 0 32 7 43 18l63 63c21 21 24 55 6 79l-41 58c12 22 21 45 28 68l70 12c30 5 52 31 52 61v88c0 30-21 56-51 61z m-5-149c0-3-2-5-5-5l-87-15c-11-2-20-10-23-21-8-30-20-60-36-87-6-10-5-22 1-31l52-73c1-2 1-5-1-7l-62-62c-2-1-3-2-4-2-1 0-2 1-3 1l-73 52c-9 7-21 7-31 1-27-16-56-28-87-36-11-3-19-12-21-23l-15-87c0-3-2-5-5-5h-88c-3 0-5 2-5 5l-15 87c-2 11-10 20-21 23-30 8-58 20-85 35-5 3-10 4-15 4-5 0-11-2-16-5l-73-52c-1-1-2-1-3-1-1 0-3 0-4 1l-62 62c-2 2-2 5-1 8l51 72c7 9 7 21 2 31-17 27-29 56-37 87-3 10-12 19-23 21l-88 15c-3 0-5 2-5 5v88c0 3 2 5 5 5l87 15c11 2 20 10 23 21 8 31 20 60 36 88 5 9 5 21-2 30l-52 73c-1 2-1 5 1 7l62 63c2 1 3 1 4 1 1 0 2 0 3-1l72-51c9-7 22-7 31-1 27 16 57 28 87 36 11 3 19 12 21 23l15 88c1 3 3 5 6 5h88c2 0 5-2 5-5l15-87c1-11 10-20 21-23 31-8 61-20 89-36 10-6 22-6 31 1l72 52c1 0 2 1 3 1 1 0 3 0 4-2l62-62c2-2 2-5 1-7l-52-73c-6-9-7-21-1-31 16-27 28-56 36-87 3-11 12-19 23-21l88-15c2 0 4-2 4-5v-88h0z m-444 260c-119 0-216-97-216-216s97-216 216-216 216 97 216 216-97 216-216 216z m0-375c-88 0-159 71-159 159s71 160 159 160 160-72 160-160-72-159-160-159z" horiz-adv-x="1000" />

<glyph glyph-name="003-logout" unicode="&#xe839;" d="M969 381h-396c-17 0-31 14-31 32 0 17 14 31 31 31h396c17 0 31-14 31-31 0-18-14-32-31-32z m0 0m-156-156c-8 0-16 3-23 9-12 12-12 32 0 44l135 135-135 134c-12 12-12 32 0 44 13 12 32 12 45 0l156-156c12-13 12-32 0-45l-156-156c-6-6-14-9-22-9z m0 0m-480-375c-9 0-17 1-25 4l-251 83c-34 12-57 44-57 80v750c0 46 37 83 83 83 9 0 18-1 26-4l251-83c34-12 57-44 57-80v-750c0-46-38-83-84-83z m-250 938c-11 0-20-10-20-21v-750c0-9 6-18 14-20l250-84c1 0 4-1 6-1 12 0 21 10 21 21v750c0 9-6 17-14 20l-250 84c-2 0-4 1-7 1z m0 0m552-271c-17 0-31 14-31 31v187c0 29-23 53-52 53h-469c-17 0-31 14-31 31 0 17 14 31 31 31h469c63 0 115-51 115-115v-187c0-17-14-31-32-31z m0 0m-83-542h-167c-17 0-31 14-31 31 0 18 14 32 31 32h167c29 0 52 23 52 52v187c0 17 14 31 31 31s32-14 32-31v-187c0-64-52-115-115-115z m0 0" horiz-adv-x="1000" />

<glyph glyph-name="004-shopping-bag" unicode="&#xe83a;" d="M896 25l-45 563c-2 36-33 65-69 65h-89v4c0 106-86 193-193 193s-193-87-193-193v-4h-88c-37 0-67-29-70-65l-45-563c-3-45 12-90 43-123 31-33 74-52 119-52h468c45 0 88 19 119 52 31 33 46 78 43 123z m-531 632c0 74 61 134 135 134s135-60 135-134v-4h-270v4z m445-715c-20-22-47-33-76-33h-468c-29 0-56 11-76 33-20 21-30 49-28 79l45 563c1 6 6 10 12 10h88v-72c0-16 13-29 29-29 16 0 29 13 29 29v72h270v-72c0-16 13-29 29-29s29 13 29 29v72h89c5 0 11-4 11-10l45-563c2-30-8-58-28-79z m-178 411c-11 12-30 12-41 0l-131-130-50 50c-12 11-30 11-42 0-11-12-11-30 0-42l71-71c6-5 13-8 21-8s15 3 21 8l151 152c11 11 11 30 0 41z" horiz-adv-x="1000" />

<glyph glyph-name="005-two-users" unicode="&#xe83b;" d="M828 255c34 28 56 71 56 118 0 81-65 151-140 151s-139-70-139-151c0-47 22-90 56-118-16-6-30-12-44-20-44 52-102 93-169 113 51 36 87 97 87 165 0 106-87 198-186 198s-186-92-186-198c0-68 36-129 87-165-144-43-250-177-250-335 0-13 11-24 23-24h954c13 0 23 11 23 24 0 111-72 207-172 242z m-177 118c0 49 41 105 93 105s93-56 93-105-40-104-93-104-93 55-93 104z m-442 140c0 71 60 151 140 151s139-80 139-151-59-151-139-151-140 80-140 151z m-161-477c11 156 143 279 301 279 159 0 289-123 301-279h-602z m649 0c-4 58-23 114-53 161 30 16 64 25 100 25 108 0 197-81 208-186h-255z" horiz-adv-x="1000" />

<glyph glyph-name="006-hotel-bell" unicode="&#xe83c;" d="M919-132l-16 65c-2 6-8 11-15 11h-17v50c0 8-7 15-15 15h-212v35h212c8 0 15 7 15 15v65c0 8-7 14-15 14h-18v18c0 170-127 312-291 335v39h50c8 0 15 6 15 14s-7 15-15 15h-194c-8 0-15-7-15-15s7-14 15-14h50v-39c-164-23-291-165-291-335v-18h-18c-8 0-15-6-15-14v-65c0-8 7-15 15-15h212v-35h-212c-8 0-15-7-15-15v-50h-17c-6 0-11-3-13-8l-33-65c-2-4-2-10 1-14s7-7 12-7h826c4 0 8 2 11 6 3 3 4 8 3 12z m-437 662h36v-36c-6 0-12 0-18 0-6 0-12 0-18 0v36z m-323-456v35h16c0 0 1 0 1 0 1 0 2 0 2 0h71c8 0 15 7 15 15 0 8-7 14-15 14h-58v18c0 170 139 309 309 309s309-139 309-309v-18h-501c-9 0-15-6-15-14 0-8 6-15 15-15h514c1 0 1 0 2 0 0 0 1 0 1 0h16v-35h-682z m456-30v-35h-230v35h230z m-456-65h212c0 0 0 0 0 0s0 0 0 0h258c0 0 0 0 0 0s1 0 1 0h211v-35h-682v35z m-56-100l18 36h756l9-36h-783z m397 971c-8 0-15-7-15-15v-64c0-8 7-15 15-15 8 0 15 7 15 15v64c0 8-7 15-15 15z m-198-128l-32 56c-4 7-13 9-20 5-7-4-9-13-5-20l32-56c3-5 8-7 13-7 2 0 5 0 7 2 7 4 9 13 5 20z m-159-149l-56 32c-7 4-16 2-20-5-4-7-2-16 5-20l56-32c3-2 5-2 8-2 5 0 10 2 12 7 4 7 2 16-5 20z m-64-208h-64c-8 0-15-7-15-15s7-15 15-15h64c9 0 15 7 15 15s-6 15-15 15z m906 0h-64c-8 0-15-7-15-15s7-15 15-15h64c8 0 15 7 15 15 0 8-7 15-15 15z m-52 235c-4 7-13 9-20 5l-56-32c-7-4-9-13-5-20 2-5 7-7 12-7 3 0 5 0 8 2l56 32c7 4 9 13 5 20z m-183 183c-7 4-16 2-20-5l-32-56c-4-7-2-16 5-20 2-2 5-2 7-2 5 0 10 2 13 7l32 56c4 7 2 16-5 20z" horiz-adv-x="1000" />

<glyph glyph-name="007-calendar" unicode="&#xe83d;" d="M15 137c8 0 14 7 14 15v427h866v-161c0-8 6-15 14-15 9 0 15 7 15 15v289c0 49-40 89-89 89h-38v18c0 20-16 36-36 36h-27c-20 0-36-16-36-36v-18h-97v18c0 20-16 36-35 36h-28c-19 0-35-16-35-36v-18h-97v18c0 20-16 36-36 36h-27c-20 0-36-16-36-36v-18h-97v18c0 20-16 36-36 36h-27c-19 0-35-16-35-36v-18h-23c-49 0-89-40-89-89v-555c0-8 7-15 15-15z m713 677c0 4 2 7 6 7h27c4 0 6-3 6-7v-71c0-3-2-6-6-6h-27c-4 0-6 3-6 6z m-196 0c0 4 3 7 6 7h28c3 0 6-3 6-7v-71c0-3-3-6-6-6h-28c-3 0-6 3-6 6z m-195 0c0 4 2 7 6 7h27c3 0 6-3 6-7v-71c0-3-3-6-6-6h-27c-4 0-6 3-6 6z m-196 0c0 4 3 7 6 7h27c4 0 7-3 7-7v-71c0-3-3-6-7-6h-27c-3 0-6 3-6 6z m-52-47h23v-24c0-19 16-35 35-35h27c20 0 36 16 36 35v24h97v-24c0-19 16-35 36-35h27c20 0 36 16 36 35v24h97v-24c0-19 16-35 35-35h28c19 0 35 16 35 35v24h97v-24c0-19 16-35 36-35h27c20 0 36 16 36 35v24h38c33 0 60-27 60-60v-99h-866v99c0 33 27 60 60 60z m0 0m77-766h-128c-5 0-9 4-9 9v75c0 8-6 15-14 15s-15-7-15-15v-75c0-21 17-38 38-38h128c8 0 15 6 15 15 0 8-7 14-15 14z m0 0m-1 535h-51c-8 0-14-6-14-15 0-8 6-14 14-14h51c8 0 15 6 15 14 0 9-7 15-15 15z m0 0m106-29h51c8 0 15 6 15 14 0 9-7 15-15 15h-51c-8 0-15-6-15-15 0-8 7-14 15-14z m0 0m156 0h51c8 0 15 6 15 14 0 9-7 15-15 15h-51c-8 0-14-6-14-15 0-8 6-14 14-14z m0 0m157 0h51c8 0 14 6 14 14 0 9-6 15-14 15h-51c-8 0-15-6-15-15 0-8 7-14 15-14z m0 0m207 29h-51c-8 0-14-6-14-15 0-8 6-14 14-14h51c8 0 15 6 15 14 0 9-7 15-15 15z m0 0m-626-74h-51c-8 0-14-6-14-14 0-8 6-15 14-15h51c8 0 15 7 15 15 0 8-7 14-15 14z m0 0m106-29h51c8 0 15 7 15 15 0 8-7 14-15 14h-51c-8 0-15-6-15-14 0-8 7-15 15-15z m0 0m156 0h51c8 0 15 7 15 15 0 8-7 14-15 14h-51c-8 0-14-6-14-14 0-8 6-15 14-15z m0 0m157 0h51c8 0 14 7 14 15 0 8-6 14-14 14h-51c-8 0-15-6-15-14 0-8 7-15 15-15z m0 0m207 29h-51c-8 0-14-6-14-14 0-8 6-15 14-15h51c8 0 15 7 15 15 0 8-7 14-15 14z m0 0m-520-316l76-76c11-11 25-17 40-17 16 0 30 6 41 17l206 206c23 23 23 60 0 82s-59 23-81 0l-166-165-34 34c-23 23-59 23-82 0-22-22-22-59 0-81z m21 60c6 6 13 9 20 9 7 0 15-3 20-9l45-44c6-6 15-6 21 0l176 175c11 11 29 11 40 0 11-11 11-29 0-40l-207-206c-5-5-12-8-20-8-7 0-14 3-20 8l-75 75c-11 11-11 29 0 40z m0 0m632 28v117c0 8-6 15-15 15-8 0-14-7-14-15v-98c-27 14-57 21-89 21-107 0-195-87-195-194 0-28 6-55 17-79h-395c-8 0-15-6-15-14 0-9 7-15 15-15h411c35-52 95-86 162-86 107 0 194 87 194 194 0 63-30 119-76 154z m-118-319c-91 0-165 74-165 165 0 91 74 165 165 165s165-74 165-165c0-91-74-165-165-165z m0 0m0 309c-80 0-144-65-144-144 0-79 64-144 144-144s144 65 144 144c0 79-65 144-144 144z m13-258c1 2 1 4 1 7v18c0 8-6 14-14 14s-15-6-15-14v-18c0-3 1-5 2-7-53 6-95 48-101 101 2-1 4-2 6-2h18c8 0 15 7 15 15 0 8-7 15-15 15h-18c-2 0-4-1-6-2 6 53 48 95 101 101-1-2-2-4-2-7v-17c0-8 7-15 15-15s14 7 14 15v17c0 3 0 5-1 7 53-6 94-48 101-101-2 1-5 2-7 2h-18c-8 0-14-7-14-15 0-8 6-15 14-15h18c2 0 5 1 7 2-7-53-48-95-101-101z m0 0m19 129h-18v15c0 8-6 14-14 14-8 0-15-6-15-14v-30c0-8 7-15 15-15h32c8 0 15 7 15 15 0 8-7 15-15 15z m0 0" horiz-adv-x="1000" />
</font>
</defs>
</svg>
